<?xml version="1.0" standalone="no"?>
<!DOCTYPE svg PUBLIC "-//W3C//DTD SVG 20010904//EN"
 "http://www.w3.org/TR/2001/REC-SVG-20010904/DTD/svg10.dtd">
<svg version="1.0" xmlns="http://www.w3.org/2000/svg"
 width="1024.000000pt" height="1024.000000pt" viewBox="0 0 1024.000000 1024.000000"
 preserveAspectRatio="xMidYMid meet">
<metadata>
Created by potrace 1.14, written by Peter Selinger 2001-2017
</metadata>
<g transform="translate(0.000000,1024.000000) scale(0.100000,-0.100000)"
fill="#000000" stroke="none">
<path d="M3490 6733 c-187 -30 -319 -72 -472 -149 -353 -176 -629 -496 -747
-865 -60 -191 -74 -285 -75 -494 0 -217 14 -313 71 -489 94 -292 277 -548 532
-744 504 -389 1238 -396 1742 -17 81 61 305 281 363 357 l28 38 -40 47 c-31
38 -307 418 -369 510 -13 17 -13 17 -25 -1 -7 -10 -29 -43 -48 -72 -106 -161
-233 -276 -383 -349 -304 -146 -642 -116 -897 80 -243 187 -349 468 -295 780
27 156 97 287 215 406 238 241 569 310 901 190 91 -34 233 -120 312 -191 107
-95 326 -366 608 -752 517 -707 586 -796 709 -912 203 -191 461 -328 717 -381
240 -50 494 -37 723 37 99 31 282 121 379 185 117 77 309 270 390 392 191 287
282 610 268 950 -6 158 -25 263 -74 416 -71 222 -187 416 -351 587 -129 134
-239 215 -407 298 -238 118 -412 155 -685 147 -127 -4 -189 -11 -270 -30 -255
-61 -484 -180 -665 -346 -67 -62 -235 -242 -235 -252 0 -4 62 -95 138 -202 75
-107 166 -237 202 -290 36 -53 67 -96 70 -96 3 0 25 30 48 68 56 87 179 214
261 270 78 53 206 114 286 136 85 23 257 31 341 15 208 -38 400 -154 519 -312
157 -208 201 -481 119 -738 -44 -139 -154 -293 -272 -381 -268 -199 -620 -217
-920 -47 -150 85 -252 202 -612 699 -354 488 -657 864 -852 1056 -306 302
-675 456 -1081 452 -78 -1 -153 -4 -167 -6z"/>
<path d="M4525 3070 c-796 -27 -1345 -79 -1345 -128 0 -68 526 -105 1655 -119
891 -10 2019 30 2213 79 71 18 69 51 -4 69 -120 28 -584 65 -1104 89 -318 15
-1107 20 -1415 10z"/>
</g>
</svg>
